<?xml version="1.0" encoding="UTF-8"?><svg xmlns="http://www.w3.org/2000/svg" xmlns:xlink="http://www.w3.org/1999/xlink" width="810" zoomAndPan="magnify" viewBox="0 0 810 809.999993" height="809.999993" preserveAspectRatio="xMidYMid meet" version="1.0"><defs><clipPath id="clip-0"><path d="M 112.320312 594 L 506 594 L 506 808.386719 L 112.320312 808.386719 Z M 112.320312 594 " clip-rule="nonzero"/></clipPath><clipPath id="clip-1"><path d="M 168.015625 607 L 448.554688 607 L 448.554688 808.386719 L 168.015625 808.386719 Z M 168.015625 607 " clip-rule="nonzero"/></clipPath><clipPath id="clip-2"><path d="M 290 22.875 L 740 22.875 L 740 420 L 290 420 Z M 290 22.875 " clip-rule="nonzero"/></clipPath></defs><rect x="-81" width="972" fill="rgb(100%, 100%, 100%)" y="-80.999999" height="971.999992" fill-opacity="1"/><rect x="-81" width="972" fill="rgb(100%, 100%, 100%)" y="-80.999999" height="971.999992" fill-opacity="1"/><rect x="-81" width="972" fill="rgb(5.099487%, 43.139648%, 99.21875%)" y="-80.999999" height="971.999992" fill-opacity="1"/><path fill="rgb(100%, 100%, 100%)" d="M 117.535156 804.261719 C 117.019531 798.519531 116.761719 792.75 116.761719 787.070312 C 116.761719 743.054688 131.933594 700.011719 159.476562 665.863281 C 185.695312 633.351562 222.042969 610.0625 262.203125 599.953125 C 266.371094 615.976562 285.828125 627.921875 309.109375 627.921875 C 332.386719 627.921875 351.847656 615.976562 356.019531 599.953125 C 396.179688 610.0625 432.519531 633.351562 458.738281 665.863281 C 486.28125 700.011719 501.453125 743.054688 501.453125 787.070312 C 501.453125 792.734375 501.195312 798.5 500.6875 804.261719 L 117.535156 804.261719 " fill-opacity="1" fill-rule="nonzero"/><g clip-path="url(#clip-0)"><path fill="rgb(19.219971%, 25.878906%, 44.309998%)" d="M 352.675781 594.917969 C 351.621094 610.988281 332.53125 623.804688 309.109375 623.804688 C 285.699219 623.804688 266.585938 610.988281 265.546875 594.917969 C 178.007812 614.792969 112.644531 693.277344 112.644531 787.070312 C 112.644531 794.273438 113.039062 801.386719 113.796875 808.386719 L 504.433594 808.386719 C 505.175781 801.386719 505.578125 794.273438 505.578125 787.070312 C 505.578125 693.277344 440.207031 614.792969 352.675781 594.917969 Z M 358.679688 604.914062 C 396.519531 615.285156 430.675781 637.628906 455.53125 668.449219 C 482.484375 701.867188 497.328125 743.996094 497.328125 787.070312 C 497.328125 791.378906 497.175781 795.753906 496.878906 800.136719 L 121.339844 800.136719 C 121.039062 795.769531 120.886719 791.386719 120.886719 787.070312 C 120.886719 743.996094 135.730469 701.867188 162.683594 668.449219 C 187.550781 637.628906 221.699219 615.285156 259.535156 604.914062 C 266.0625 620.703125 285.835938 632.046875 309.109375 632.046875 C 332.378906 632.046875 352.152344 620.703125 358.679688 604.914062 " fill-opacity="1" fill-rule="nonzero"/></g><path fill="rgb(98.039246%, 74.899292%, 69.40918%)" d="M 309.109375 625.34375 C 287.199219 625.34375 269.375 613.503906 269.375 598.945312 L 269.375 548.140625 C 282.324219 551.554688 295.667969 553.285156 309.109375 553.285156 C 322.546875 553.285156 335.890625 551.554688 348.839844 548.140625 L 348.839844 598.945312 C 348.839844 613.503906 331.015625 625.34375 309.109375 625.34375 " fill-opacity="1" fill-rule="nonzero"/><path fill="rgb(19.219971%, 25.878906%, 44.309998%)" d="M 352.722656 543.023438 C 338.90625 547.164062 324.273438 549.414062 309.109375 549.414062 C 293.945312 549.414062 279.300781 547.164062 265.5 543.023438 L 265.5 593.082031 C 265.5 594.082031 265.5 597.957031 265.5 598.945312 C 265.5 615.660156 285.023438 629.21875 309.109375 629.21875 C 333.191406 629.21875 352.722656 615.660156 352.722656 598.945312 C 352.722656 597.957031 352.722656 594.082031 352.722656 593.082031 Z M 344.964844 553.085938 L 344.964844 598.945312 C 344.964844 611.160156 328.542969 621.46875 309.109375 621.46875 C 289.671875 621.46875 273.25 611.160156 273.25 598.945312 L 273.25 553.085938 C 284.992188 555.800781 297.011719 557.160156 309.109375 557.160156 C 321.203125 557.160156 333.226562 555.800781 344.964844 553.085938 " fill-opacity="1" fill-rule="nonzero"/><path fill="rgb(98.039246%, 74.899292%, 69.40918%)" d="M 309.109375 590.085938 C 207.566406 590.085938 124.941406 507.492188 124.941406 405.964844 L 124.941406 249.886719 C 124.941406 168.917969 207.566406 103.054688 309.109375 103.054688 C 410.660156 103.054688 493.277344 168.917969 493.277344 249.886719 L 493.277344 405.964844 C 493.277344 507.492188 410.660156 590.085938 309.109375 590.085938 " fill-opacity="1" fill-rule="nonzero"/><path fill="rgb(19.219971%, 25.878906%, 44.309998%)" d="M 309.109375 98.230469 C 204.726562 98.230469 120.113281 166.121094 120.113281 249.886719 C 120.113281 250.988281 120.113281 252.59375 120.113281 254.484375 C 120.113281 264.152344 120.113281 282.292969 120.113281 291.558594 C 120.113281 293.152344 120.113281 294.488281 120.113281 295.464844 C 120.113281 296.171875 120.113281 296.9375 120.113281 297.753906 C 120.113281 309.53125 120.113281 330.789062 120.113281 337.128906 C 120.113281 337.933594 120.113281 338.699219 120.113281 339.417969 C 120.113281 341.011719 120.113281 342.347656 120.113281 343.332031 C 120.113281 354.410156 120.113281 378.222656 120.113281 384.996094 L 120.113281 405.964844 C 120.113281 510.316406 204.726562 594.917969 309.109375 594.917969 C 413.488281 594.917969 498.101562 510.316406 498.101562 405.964844 L 498.101562 384.996094 C 498.101562 378.222656 498.101562 354.410156 498.101562 343.332031 C 498.101562 342.347656 498.101562 341.011719 498.101562 339.417969 C 498.101562 338.699219 498.101562 337.933594 498.101562 337.128906 C 498.101562 330.789062 498.101562 309.53125 498.101562 297.753906 C 498.101562 296.9375 498.101562 296.171875 498.101562 295.464844 C 498.101562 294.488281 498.101562 293.152344 498.101562 291.558594 C 498.101562 282.292969 498.101562 264.152344 498.101562 254.484375 C 498.101562 252.59375 498.101562 250.988281 498.101562 249.886719 C 498.101562 166.121094 413.488281 98.230469 309.109375 98.230469 Z M 309.109375 107.878906 C 407.992188 107.878906 488.441406 171.585938 488.441406 249.886719 L 488.441406 405.964844 C 488.441406 504.832031 407.992188 585.261719 309.109375 585.261719 C 210.222656 585.261719 129.773438 504.832031 129.773438 405.964844 L 129.773438 249.886719 C 129.773438 171.585938 210.222656 107.878906 309.109375 107.878906 " fill-opacity="1" fill-rule="nonzero"/><path fill="rgb(82.749939%, 82.348633%, 82.348633%)" d="M 530.398438 397.039062 C 524.0625 375.121094 510.808594 360.234375 493.878906 356.140625 L 493.71875 350.953125 L 493.71875 257.636719 C 493.71875 236.601562 490.457031 218.78125 483.757812 203.4375 C 484.824219 203.847656 486.007812 204.378906 487.472656 205.03125 L 488.199219 205.355469 C 505.492188 214.925781 509.140625 234.023438 512.671875 252.496094 L 513.257812 255.582031 C 515.105469 267.738281 522.128906 278.734375 528.921875 289.367188 C 534.492188 298.066406 540.242188 307.074219 543.0625 316.660156 C 548.351562 336.203125 546.09375 379.371094 530.398438 397.039062 " fill-opacity="1" fill-rule="nonzero"/><path fill="rgb(19.219971%, 25.878906%, 44.309998%)" d="M 478.167969 198.464844 C 477.820312 198.464844 477.457031 198.472656 477.078125 198.492188 C 486.675781 216.664062 489.84375 236.667969 489.84375 257.636719 C 489.84375 258.746094 489.84375 260.34375 489.84375 262.234375 C 489.84375 271.902344 489.84375 290.042969 489.84375 299.308594 C 489.84375 300.902344 489.84375 302.238281 489.84375 303.214844 C 489.84375 303.929688 489.84375 304.6875 489.84375 305.503906 C 489.84375 317.289062 489.84375 338.546875 489.84375 344.878906 C 489.84375 345.691406 489.84375 346.457031 489.84375 347.167969 C 489.84375 348.761719 489.84375 350.105469 489.84375 351.074219 L 490.109375 359.339844 C 509.109375 362.335938 522.878906 379.519531 528.207031 404.222656 C 550.25 388.597656 552.613281 337.128906 546.785156 315.570312 C 540.324219 293.605469 520.292969 276.164062 517.070312 254.839844 C 513.195312 234.8125 509.964844 212.863281 489.929688 201.882812 C 485.105469 199.730469 482.566406 198.464844 478.167969 198.464844 Z M 491.125 211.953125 C 502.765625 221.3125 505.742188 236.867188 508.859375 253.222656 L 509.421875 256.160156 C 511.445312 269.21875 518.671875 280.523438 525.660156 291.453125 C 531.308594 300.289062 536.648438 308.644531 539.324219 317.675781 C 543.757812 334.210938 542.523438 369.714844 531.664062 388.636719 C 524.675781 370.488281 512.65625 357.878906 497.667969 353.175781 L 497.59375 350.953125 L 497.59375 257.636719 C 497.59375 240.476562 495.460938 225.378906 491.125 211.953125 " fill-opacity="1" fill-rule="nonzero"/><path fill="rgb(98.039246%, 74.899292%, 69.40918%)" d="M 484.007812 489.332031 C 481.179688 489.332031 478.351562 488.988281 475.554688 488.292969 C 487.789062 462.476562 493.984375 434.804688 493.984375 405.964844 L 493.984375 356.421875 C 516.214844 362.851562 532.46875 390.078125 532.46875 422.148438 C 532.46875 459.195312 510.730469 489.332031 484.007812 489.332031 " fill-opacity="1" fill-rule="nonzero"/><path fill="rgb(19.219971%, 25.878906%, 44.309998%)" d="M 490.109375 351.589844 C 490.109375 363.542969 490.109375 379.621094 490.109375 384.996094 L 490.109375 405.964844 C 490.109375 436.421875 482.890625 465.175781 470.09375 490.652344 C 474.535156 492.304688 479.191406 493.207031 484.007812 493.207031 C 512.914062 493.207031 536.34375 461.394531 536.34375 422.148438 C 536.34375 385.703125 516.144531 355.695312 490.109375 351.589844 Z M 497.859375 362.035156 C 504.894531 365.339844 511.324219 371.164062 516.515625 379.011719 C 524.304688 390.804688 528.59375 406.117188 528.59375 422.148438 C 528.59375 457.0625 508.59375 485.457031 484.007812 485.457031 C 483.066406 485.457031 482.125 485.417969 481.171875 485.328125 C 492.253906 460.316406 497.859375 433.667969 497.859375 405.964844 L 497.859375 362.035156 " fill-opacity="1" fill-rule="nonzero"/><path fill="rgb(82.749939%, 82.348633%, 82.348633%)" d="M 87.949219 397.039062 C 72.25 379.363281 70.003906 336.195312 75.304688 316.578125 C 78.101562 307.074219 83.863281 298.066406 89.429688 289.359375 C 96.230469 278.726562 103.257812 267.738281 105.125 255.429688 L 105.691406 252.488281 C 109.21875 234.015625 112.871094 214.917969 130.152344 205.355469 L 130.871094 205.03125 C 132.335938 204.378906 133.523438 203.847656 134.578125 203.4375 C 127.816406 218.847656 124.640625 236.28125 124.640625 257.636719 L 124.640625 351.074219 L 124.472656 356.140625 C 107.542969 360.222656 94.289062 375.121094 87.949219 397.039062 " fill-opacity="1" fill-rule="nonzero"/><path fill="rgb(19.219971%, 25.878906%, 44.309998%)" d="M 140.195312 198.464844 C 135.785156 198.464844 133.25 199.730469 128.421875 201.882812 C 108.390625 212.863281 105.167969 234.8125 101.292969 254.839844 C 98.058594 276.164062 78.019531 293.605469 71.566406 315.570312 C 65.730469 337.128906 68.109375 388.597656 90.140625 404.222656 C 95.472656 379.519531 109.242188 362.335938 128.246094 359.339844 L 128.519531 351.074219 C 128.519531 350.105469 128.519531 348.761719 128.519531 347.167969 C 128.519531 346.457031 128.519531 345.691406 128.519531 344.878906 C 128.519531 338.546875 128.519531 317.289062 128.519531 305.503906 C 128.519531 304.6875 128.519531 303.929688 128.519531 303.214844 C 128.519531 302.238281 128.519531 300.902344 128.519531 299.308594 C 128.519531 290.042969 128.519531 271.902344 128.519531 262.234375 C 128.519531 260.34375 128.519531 258.746094 128.519531 257.636719 C 128.519531 236.667969 131.675781 216.664062 141.265625 198.492188 C 140.894531 198.472656 140.53125 198.464844 140.195312 198.464844 Z M 127.238281 211.953125 C 122.894531 225.378906 120.765625 240.476562 120.765625 257.636719 L 120.765625 350.953125 L 120.6875 353.175781 C 105.699219 357.871094 93.675781 370.488281 86.683594 388.636719 C 75.820312 369.707031 74.585938 334.210938 79.027344 317.675781 C 81.703125 308.644531 87.046875 300.289062 92.695312 291.445312 C 99.6875 280.511719 106.914062 269.21875 108.929688 256.160156 L 109.503906 253.203125 C 112.628906 236.859375 115.59375 221.304688 127.238281 211.953125 " fill-opacity="1" fill-rule="nonzero"/><path fill="rgb(98.039246%, 74.899292%, 69.40918%)" d="M 134.34375 489.332031 C 107.625 489.332031 85.882812 459.195312 85.882812 422.148438 C 85.882812 390.085938 102.136719 362.851562 124.367188 356.421875 L 124.367188 405.964844 C 124.367188 434.804688 130.566406 462.476562 142.796875 488.292969 C 140 488.988281 137.171875 489.332031 134.34375 489.332031 " fill-opacity="1" fill-rule="nonzero"/><path fill="rgb(19.219971%, 25.878906%, 44.309998%)" d="M 128.246094 351.589844 C 102.21875 355.695312 82.007812 385.703125 82.007812 422.148438 C 82.007812 461.394531 105.441406 493.207031 134.34375 493.207031 C 139.164062 493.207031 143.828125 492.304688 148.257812 490.652344 C 135.464844 465.175781 128.246094 436.421875 128.246094 405.964844 L 128.246094 384.996094 C 128.246094 379.621094 128.246094 363.542969 128.246094 351.589844 Z M 120.492188 362.035156 L 120.492188 405.964844 C 120.492188 433.667969 126.101562 460.316406 137.171875 485.328125 C 136.238281 485.417969 135.292969 485.457031 134.34375 485.457031 C 109.769531 485.457031 89.761719 457.0625 89.761719 422.148438 C 89.761719 406.125 94.054688 390.804688 101.839844 379.011719 C 107.027344 371.164062 113.457031 365.347656 120.492188 362.035156 " fill-opacity="1" fill-rule="nonzero"/><path fill="rgb(41.178894%, 42.349243%, 41.569519%)" d="M 172.554688 804.511719 L 172.554688 650.890625 C 188.332031 634.980469 206.484375 622.082031 226.582031 612.519531 L 305.738281 690.433594 C 306.496094 691.175781 307.472656 691.546875 308.457031 691.546875 C 309.4375 691.546875 310.421875 691.175781 311.179688 690.433594 L 390.773438 612.09375 C 410.652344 621.4375 428.660156 634.035156 444.363281 649.578125 L 444.363281 804.511719 L 172.554688 804.511719 " fill-opacity="1" fill-rule="nonzero"/><g clip-path="url(#clip-1)"><path fill="rgb(19.219971%, 25.878906%, 44.309998%)" d="M 389.960938 607.453125 L 308.457031 687.671875 L 227.378906 607.863281 C 205.308594 618.007812 185.445312 632.128906 168.679688 649.300781 L 168.679688 808.386719 L 448.242188 808.386719 L 448.242188 647.964844 C 431.527344 631.160156 411.8125 617.355469 389.960938 607.453125 Z M 391.546875 616.765625 C 409.589844 625.554688 426.019531 637.121094 440.488281 651.203125 L 440.488281 800.636719 L 176.429688 800.636719 L 176.429688 652.492188 C 190.980469 638.058594 207.566406 626.207031 225.808594 617.199219 L 303.015625 693.199219 C 304.53125 694.679688 306.496094 695.421875 308.457031 695.421875 C 310.421875 695.421875 312.386719 694.679688 313.902344 693.199219 L 391.546875 616.765625 " fill-opacity="1" fill-rule="nonzero"/></g><path fill="rgb(74.119568%, 73.728943%, 73.728943%)" d="M 379.804688 781.253906 C 364.632812 781.253906 354.046875 775.171875 352.933594 769.527344 L 352.828125 769.089844 L 352.828125 730.550781 L 406.777344 730.550781 L 406.777344 769.121094 L 406.671875 769.527344 C 405.558594 775.164062 394.972656 781.253906 379.804688 781.253906 " fill-opacity="1" fill-rule="nonzero"/><path fill="rgb(19.219971%, 25.878906%, 44.309998%)" d="M 410.660156 726.667969 L 348.953125 726.667969 L 348.953125 770.273438 L 349.140625 770.273438 C 350.773438 778.628906 363.875 785.128906 379.804688 785.128906 C 395.738281 785.128906 408.832031 778.628906 410.472656 770.273438 L 410.660156 770.273438 Z M 402.898438 734.425781 L 402.898438 768.617188 L 402.875 768.777344 C 402.28125 771.773438 393.835938 777.378906 379.804688 777.378906 C 365.769531 777.378906 357.332031 771.78125 356.738281 768.777344 L 356.707031 768.589844 L 356.707031 734.425781 L 402.898438 734.425781 " fill-opacity="1" fill-rule="nonzero"/><path fill="rgb(35.289001%, 78.039551%, 72.938538%)" d="M 289.238281 636.953125 L 293.6875 623.855469 C 297.269531 624.902344 303.023438 626.183594 309.6875 626.183594 C 314.730469 626.183594 319.503906 625.449219 323.941406 624 L 328.324219 636.929688 L 308.566406 656.351562 L 289.238281 636.953125 " fill-opacity="1" fill-rule="nonzero"/><path fill="rgb(19.219971%, 25.878906%, 44.309998%)" d="M 326.3125 618.941406 C 320.664062 621.46875 314.886719 622.308594 309.6875 622.308594 C 299.300781 622.308594 291.253906 618.941406 291.253906 618.941406 L 284.789062 637.984375 L 308.535156 661.8125 L 332.773438 637.984375 Z M 296.199219 628.503906 C 299.851562 629.332031 304.53125 630.066406 309.6875 630.066406 C 313.773438 630.066406 317.707031 629.613281 321.453125 628.726562 L 323.871094 635.875 L 308.59375 650.882812 L 293.675781 635.921875 L 296.199219 628.503906 " fill-opacity="1" fill-rule="nonzero"/><path fill="rgb(35.289001%, 78.039551%, 72.938538%)" d="M 295.523438 704.144531 L 302.832031 656.109375 L 306.085938 659.257812 C 306.835938 659.984375 307.8125 660.355469 308.785156 660.355469 C 309.679688 660.355469 310.582031 660.050781 311.316406 659.421875 L 315.773438 655.585938 L 323.175781 704.144531 L 309.339844 766.230469 L 295.523438 704.144531 " fill-opacity="1" fill-rule="nonzero"/><path fill="rgb(19.219971%, 25.878906%, 44.309998%)" d="M 318.550781 648.085938 L 308.785156 656.480469 L 300.132812 648.085938 L 291.574219 704.28125 L 309.339844 784.058594 L 327.117188 704.28125 Z M 312.976562 662.996094 L 319.230469 704.015625 L 309.339844 748.394531 L 299.464844 704.015625 L 305.617188 663.5625 C 306.617188 664.003906 307.707031 664.230469 308.785156 664.230469 C 310.246094 664.230469 311.703125 663.828125 312.976562 662.996094 " fill-opacity="1" fill-rule="nonzero"/><path fill="rgb(19.219971%, 25.878906%, 44.309998%)" d="M 227.144531 262.566406 C 255.765625 247.792969 284.097656 264.363281 313.652344 258.394531 C 328.324219 255.429688 341.597656 249.917969 356.867188 252.648438 C 366.003906 254.285156 378.613281 262.605469 387.710938 258.890625 C 391.128906 257.492188 389.636719 251.867188 386.164062 253.285156 C 380.765625 255.492188 371.667969 250.707031 366.496094 249.128906 C 360.847656 247.40625 355.207031 246.316406 349.324219 245.90625 C 335.546875 244.941406 322.21875 250.746094 308.945312 253.429688 C 293.46875 256.546875 277.136719 251.0625 261.632812 249.820312 C 248.394531 248.75 235.960938 251.480469 224.210938 257.554688 C 220.882812 259.269531 223.824219 264.289062 227.144531 262.566406 " fill-opacity="1" fill-rule="nonzero"/><path fill="rgb(19.219971%, 25.878906%, 44.309998%)" d="M 242.148438 229.648438 C 253.011719 229.175781 262.800781 225.398438 273.9375 226.257812 C 286.570312 227.234375 298.183594 229.253906 310.96875 228.039062 C 322.824219 226.910156 333.683594 221.996094 345.714844 221.367188 C 354.296875 220.910156 363.328125 226.96875 371.5 224.703125 C 375.109375 223.710938 373.578125 218.097656 369.960938 219.097656 C 366.042969 220.183594 361.320312 217.519531 357.609375 216.511719 C 352.59375 215.15625 347.042969 215.480469 341.933594 215.753906 C 332.257812 216.261719 323.054688 219.699219 313.660156 221.746094 C 301.648438 224.367188 289.472656 222.238281 277.496094 220.851562 C 271.332031 220.144531 265.453125 219.949219 259.269531 220.613281 C 253.414062 221.222656 248.101562 223.574219 242.148438 223.832031 C 238.410156 224.003906 238.394531 229.820312 242.148438 229.648438 " fill-opacity="1" fill-rule="nonzero"/><path fill="rgb(19.219971%, 25.878906%, 44.309998%)" d="M 257.773438 201.988281 C 268.730469 189.195312 288.792969 200.335938 302.21875 201.550781 C 311.6875 202.414062 318.535156 200.320312 327.207031 196.824219 C 339.140625 192.023438 350.273438 192.351562 361.507812 198.570312 C 364.785156 200.390625 367.71875 195.363281 364.441406 193.550781 C 356.601562 189.203125 349.097656 186.960938 340.082031 187.558594 C 335.125 187.882812 330.292969 189.566406 325.660156 191.222656 C 316.480469 194.503906 309.359375 196.871094 299.421875 195.269531 C 284.832031 192.917969 265.402344 184.175781 253.664062 197.878906 C 251.238281 200.714844 255.332031 204.847656 257.773438 201.988281 " fill-opacity="1" fill-rule="nonzero"/><path fill="rgb(19.219971%, 25.878906%, 44.309998%)" d="M 339.550781 405.464844 C 339.550781 435.882812 364.222656 460.542969 394.640625 460.542969 C 425.066406 460.542969 449.730469 435.882812 449.730469 405.464844 C 449.730469 375.054688 425.066406 350.398438 394.640625 350.398438 C 364.222656 350.398438 339.550781 375.054688 339.550781 405.464844 " fill-opacity="1" fill-rule="nonzero"/><path fill="rgb(19.60907%, 18.429565%, 18.818665%)" d="M 371.734375 367.039062 C 371.523438 367.507812 371.3125 368.007812 371.144531 368.53125 C 362.804688 392.6875 364.3125 415.839844 387.589844 430.9375 C 399.492188 438.648438 413.191406 440.039062 426.242188 437.132812 C 418.152344 445.226562 406.992188 450.230469 394.640625 450.230469 C 369.910156 450.230469 349.863281 430.195312 349.863281 405.464844 C 349.863281 389.121094 358.648438 374.855469 371.734375 367.039062 " fill-opacity="1" fill-rule="nonzero"/><path fill="rgb(100%, 100%, 100%)" d="M 381.933594 393.230469 C 381.933594 407.003906 393.101562 418.175781 406.886719 418.175781 C 420.667969 418.175781 431.835938 407.003906 431.835938 393.230469 C 431.835938 379.453125 420.667969 368.28125 406.886719 368.28125 C 393.101562 368.28125 381.933594 379.453125 381.933594 393.230469 " fill-opacity="1" fill-rule="nonzero"/><path fill="rgb(100%, 100%, 100%)" d="M 417.71875 424.765625 C 417.71875 427.882812 420.242188 430.421875 423.367188 430.421875 C 426.484375 430.421875 429.023438 427.882812 429.023438 424.765625 C 429.023438 421.648438 426.484375 419.121094 423.367188 419.121094 C 420.242188 419.121094 417.71875 421.648438 417.71875 424.765625 " fill-opacity="1" fill-rule="nonzero"/><path fill="rgb(100%, 100%, 100%)" d="M 383.34375 364.984375 C 383.34375 368.101562 385.875 370.632812 389 370.632812 C 392.117188 370.632812 394.640625 368.101562 394.640625 364.984375 C 394.640625 361.867188 392.117188 359.339844 389 359.339844 C 385.875 359.339844 383.34375 361.867188 383.34375 364.984375 " fill-opacity="1" fill-rule="nonzero"/><path fill="rgb(100%, 100%, 100%)" d="M 373.933594 376.867188 C 373.933594 379.074219 375.714844 380.871094 377.9375 380.871094 C 380.144531 380.871094 381.933594 379.074219 381.933594 376.867188 C 381.933594 374.667969 380.144531 372.871094 377.9375 372.871094 C 375.714844 372.871094 373.933594 374.667969 373.933594 376.867188 " fill-opacity="1" fill-rule="nonzero"/><path fill="rgb(19.219971%, 25.878906%, 44.309998%)" d="M 166.285156 405.464844 C 166.285156 435.882812 190.941406 460.542969 221.367188 460.542969 C 251.792969 460.542969 276.457031 435.882812 276.457031 405.464844 C 276.457031 375.054688 251.792969 350.398438 221.367188 350.398438 C 190.941406 350.398438 166.285156 375.054688 166.285156 405.464844 " fill-opacity="1" fill-rule="nonzero"/><path fill="rgb(19.60907%, 18.429565%, 18.818665%)" d="M 198.46875 367.039062 C 198.242188 367.507812 198.039062 368.007812 197.871094 368.53125 C 189.53125 392.6875 191.039062 415.839844 214.308594 430.9375 C 226.21875 438.648438 239.917969 440.039062 252.96875 437.132812 C 244.878906 445.226562 233.726562 450.230469 221.367188 450.230469 C 196.644531 450.230469 176.589844 430.195312 176.589844 405.464844 C 176.589844 389.121094 185.382812 374.855469 198.46875 367.039062 " fill-opacity="1" fill-rule="nonzero"/><path fill="rgb(100%, 100%, 100%)" d="M 208.667969 393.230469 C 208.667969 407.003906 219.828125 418.175781 233.613281 418.175781 C 247.394531 418.175781 258.570312 407.003906 258.570312 393.230469 C 258.570312 379.453125 247.394531 368.28125 233.613281 368.28125 C 219.828125 368.28125 208.667969 379.453125 208.667969 393.230469 " fill-opacity="1" fill-rule="nonzero"/><path fill="rgb(100%, 100%, 100%)" d="M 244.445312 424.765625 C 244.445312 427.882812 246.976562 430.421875 250.09375 430.421875 C 253.21875 430.421875 255.742188 427.882812 255.742188 424.765625 C 255.742188 421.648438 253.21875 419.121094 250.09375 419.121094 C 246.976562 419.121094 244.445312 421.648438 244.445312 424.765625 " fill-opacity="1" fill-rule="nonzero"/><path fill="rgb(100%, 100%, 100%)" d="M 210.070312 364.984375 C 210.070312 368.101562 212.601562 370.632812 215.726562 370.632812 C 218.84375 370.632812 221.367188 368.101562 221.367188 364.984375 C 221.367188 361.867188 218.84375 359.339844 215.726562 359.339844 C 212.601562 359.339844 210.070312 361.867188 210.070312 364.984375 " fill-opacity="1" fill-rule="nonzero"/><path fill="rgb(100%, 100%, 100%)" d="M 200.652344 376.867188 C 200.652344 379.074219 202.449219 380.871094 204.664062 380.871094 C 206.871094 380.871094 208.667969 379.074219 208.667969 376.867188 C 208.667969 374.667969 206.871094 372.871094 204.664062 372.871094 C 202.449219 372.871094 200.652344 374.667969 200.652344 376.867188 " fill-opacity="1" fill-rule="nonzero"/><path fill="rgb(95.689392%, 43.139648%, 44.709778%)" d="M 386.4375 479.761719 C 386.4375 486.625 406.164062 492.183594 430.496094 492.183594 C 454.847656 492.183594 474.574219 486.625 474.574219 479.761719 C 474.574219 472.890625 454.847656 467.332031 430.496094 467.332031 C 406.164062 467.332031 386.4375 472.890625 386.4375 479.761719 " fill-opacity="1" fill-rule="nonzero"/><path fill="rgb(95.689392%, 43.139648%, 44.709778%)" d="M 141.441406 479.761719 C 141.441406 486.625 161.175781 492.183594 185.511719 492.183594 C 209.859375 492.183594 229.578125 486.625 229.578125 479.761719 C 229.578125 472.890625 209.859375 467.332031 185.511719 467.332031 C 161.175781 467.332031 141.441406 472.890625 141.441406 479.761719 " fill-opacity="1" fill-rule="nonzero"/><path fill="rgb(19.219971%, 25.878906%, 44.309998%)" d="M 325.820312 496.929688 C 343.578125 496.929688 350.507812 482.953125 351.675781 475.542969 C 352.410156 470.925781 349.257812 466.574219 344.632812 465.84375 C 340.042969 465.109375 335.746094 468.210938 334.957031 472.777344 C 334.539062 474.960938 332.78125 479.972656 325.796875 479.972656 L 325.746094 479.972656 C 318.050781 479.949219 316.785156 475.582031 316.578125 474.332031 C 316.640625 469.976562 313.363281 466.214844 308.9375 465.777344 C 304.296875 465.320312 300.132812 468.71875 299.664062 473.375 C 299.285156 477.191406 300.976562 483.621094 305.578125 488.710938 C 308.9375 492.433594 315.144531 496.871094 325.675781 496.929688 L 325.820312 496.929688 " fill-opacity="1" fill-rule="nonzero"/><path fill="rgb(19.219971%, 25.878906%, 44.309998%)" d="M 289.171875 496.929688 L 289.328125 496.929688 C 299.859375 496.871094 306.070312 492.425781 309.421875 488.710938 C 314.023438 483.605469 315.707031 477.183594 315.328125 473.367188 C 314.859375 468.710938 310.710938 465.3125 306.054688 465.777344 C 301.628906 466.222656 298.351562 469.976562 298.414062 474.332031 C 298.207031 475.582031 296.933594 479.949219 289.253906 479.972656 L 289.1875 479.972656 C 281.40625 479.972656 280.171875 473.609375 280.058594 472.882812 C 279.328125 468.265625 274.984375 465.125 270.359375 465.84375 C 265.734375 466.574219 262.582031 470.925781 263.316406 475.542969 C 264.492188 482.953125 271.40625 496.929688 289.171875 496.929688 " fill-opacity="1" fill-rule="nonzero"/><path fill="rgb(95.289612%, 37.249756%, 65.098572%)" d="M 515.371094 398.730469 C 512.6875 389.175781 508.398438 378.09375 502.558594 365.558594 C 481.109375 319.609375 436.285156 293.054688 392.941406 267.375 C 389.539062 265.367188 386.203125 263.386719 382.902344 261.421875 C 344.257812 238.332031 303.636719 207.519531 295.457031 154.03125 C 289.996094 118.222656 301.832031 84.734375 328.792969 59.738281 C 351.804688 38.40625 383.5625 26.171875 415.921875 26.171875 C 425.597656 26.171875 435.226562 27.265625 444.535156 29.410156 C 479.5625 37.515625 503.550781 63.089844 512.066406 101.425781 C 512.414062 102.972656 513.789062 104.078125 515.378906 104.078125 C 516.964844 104.078125 518.34375 102.972656 518.679688 101.425781 C 527.191406 63.089844 551.171875 37.515625 586.207031 29.410156 C 595.511719 27.265625 605.132812 26.171875 614.820312 26.171875 C 647.179688 26.171875 678.941406 38.40625 701.953125 59.738281 C 728.914062 84.734375 740.753906 118.222656 735.28125 154.03125 C 727.109375 207.519531 686.492188 238.332031 647.832031 261.429688 C 644.847656 263.203125 641.835938 264.988281 638.804688 266.785156 L 637.847656 267.351562 C 594.457031 293.054688 549.632812 319.609375 528.191406 365.558594 C 522.339844 378.082031 518.0625 389.167969 515.371094 398.730469 " fill-opacity="1" fill-rule="nonzero"/><g clip-path="url(#clip-2)"><path fill="rgb(12.939453%, 21.958923%, 39.99939%)" d="M 415.921875 22.789062 C 383.023438 22.789062 350.515625 34.984375 326.488281 57.257812 C 298.671875 83.042969 286.464844 117.585938 292.105469 154.539062 C 300.503906 209.414062 341.832031 240.832031 381.167969 264.335938 C 384.472656 266.304688 387.808594 268.277344 391.167969 270.265625 C 434.089844 295.699219 478.472656 321.976562 499.480469 366.984375 C 505.523438 379.929688 515.378906 403.03125 515.378906 419.507812 C 515.378906 403.03125 525.214844 379.929688 531.269531 366.984375 C 552.265625 321.976562 596.65625 295.699219 639.578125 270.265625 C 642.933594 268.277344 646.277344 266.304688 649.570312 264.335938 C 688.910156 240.832031 730.246094 209.414062 738.625 154.539062 C 744.273438 117.585938 732.074219 83.042969 704.257812 57.257812 C 680.230469 34.984375 647.710938 22.789062 614.820312 22.789062 C 604.988281 22.789062 595.125 23.875 585.441406 26.105469 C 548.777344 34.589844 524.128906 61.238281 515.378906 100.6875 C 506.609375 61.238281 481.96875 34.589844 445.300781 26.105469 C 435.613281 23.875 425.742188 22.789062 415.921875 22.789062 Z M 415.921875 29.5625 C 425.347656 29.5625 434.710938 30.625 443.769531 32.710938 C 477.457031 40.503906 500.535156 65.167969 508.761719 102.160156 C 509.449219 105.261719 512.203125 107.460938 515.378906 107.460938 C 518.550781 107.460938 521.308594 105.253906 521.992188 102.152344 C 530.195312 65.167969 553.28125 40.503906 586.972656 32.710938 C 596.019531 30.625 605.390625 29.5625 614.820312 29.5625 C 646.332031 29.5625 677.25 41.46875 699.648438 62.21875 C 725.765625 86.429688 737.222656 118.851562 731.929688 153.515625 C 723.976562 205.613281 684.074219 235.828125 646.097656 258.511719 C 643.125 260.292969 640.113281 262.066406 637.089844 263.863281 L 636.066406 264.464844 C 592.28125 290.40625 547.003906 317.230469 525.121094 364.117188 C 521.164062 372.597656 517.90625 380.4375 515.371094 387.621094 C 512.832031 380.4375 509.578125 372.597656 505.621094 364.125 C 483.734375 317.230469 438.457031 290.40625 394.617188 264.433594 C 391.265625 262.453125 387.9375 260.480469 384.648438 258.511719 C 346.664062 235.828125 306.78125 205.621094 298.800781 153.515625 C 293.515625 118.859375 304.984375 86.429688 331.097656 62.230469 C 353.488281 41.460938 384.40625 29.554688 415.921875 29.5625 " fill-opacity="1" fill-rule="nonzero"/></g><path fill="rgb(19.219971%, 25.878906%, 44.309998%)" d="M 510.285156 395.355469 C 510.324219 410.804688 510.625 426.273438 510.308594 441.714844 C 509.929688 461.144531 511.550781 480.351562 512.242188 499.75 C 512.921875 518.921875 509.269531 537.09375 506.121094 555.871094 C 503.058594 574.125 505.363281 590.851562 506.707031 609.082031 C 508.09375 627.746094 505.621094 646.554688 497.515625 663.527344 C 490.140625 678.964844 482.960938 693.164062 479.253906 710.050781 C 475.636719 726.539062 476.183594 743.539062 472.308594 759.980469 C 470.0625 769.492188 466.21875 777.171875 458.933594 783.6875 C 453.65625 788.425781 448.621094 792.589844 445.019531 798.808594 C 441.730469 804.488281 450.511719 809.601562 453.800781 803.9375 C 457.820312 796.988281 464.527344 792.621094 470.164062 787.09375 C 475.144531 782.214844 477.820312 775.632812 480.183594 769.210938 C 486.433594 752.207031 485.347656 733.484375 488.449219 715.867188 C 491.664062 697.515625 499.898438 682.066406 507.8125 665.476562 C 515.152344 650.101562 517.320312 632.78125 517.167969 615.910156 C 516.996094 596.359375 512.894531 578.226562 515.925781 558.570312 C 518.769531 540.082031 522.628906 522.410156 522.5 503.582031 C 522.347656 484.0625 519.859375 464.683594 520.390625 445.148438 C 520.832031 428.5625 520.503906 411.949219 520.453125 395.355469 C 520.4375 388.796875 510.269531 388.796875 510.285156 395.355469 " fill-opacity="1" fill-rule="nonzero"/></svg>